# Blender 4.2.2 LTS
# www.blender.org
mtllib nave.mtl
o Cube
v -1.239154 -0.429021 -0.606762
v -1.239154 -0.429021 0.606762
v -1.327492 0.429021 0.606761
v -1.342609 0.429021 -0.606761
v -0.094319 0.023154 2.227465
v -1.327492 0.429021 0.606761
v -1.342609 0.429021 -0.606761
v -0.089173 0.018140 -1.924572
v 0.650753 0.018140 -1.924572
v 0.650753 -0.018140 -1.924572
v 0.655925 -0.023154 2.227465
v 0.655925 0.023154 2.227465
v 1.239154 0.407368 -0.594115
v 1.239154 -0.407368 -0.594115
v 1.239154 -0.407368 0.594115
v 1.239154 0.407368 0.594115
v 1.280648 -0.219405 0.484331
v 1.253765 -0.407368 0.594115
v 1.253765 0.407368 0.594115
v 1.280648 0.219405 0.484331
v 1.280648 -0.219405 -0.484331
v 1.253765 -0.407368 -0.594115
v 1.253765 0.407368 -0.594115
v 1.280648 0.219405 -0.484331
v 1.447648 0.219405 -0.484331
v 1.447648 -0.219405 -0.484331
v 1.447648 -0.219405 0.484331
v 1.447648 0.219405 0.484331
v -0.094316 -0.023154 2.227465
v -0.089173 -0.018140 -1.924572
v 1.239154 0.588575 0.699952
v 1.239154 -0.588575 0.699952
v -0.677511 -0.588575 0.699952
v -0.677581 0.588575 0.699952
v 0.941426 0.299937 0.699952
v 0.941426 -0.299937 0.699952
v -0.379800 -0.299937 0.699952
v -0.379836 0.299937 0.699952
v 0.729436 0.094420 1.619757
v 0.729436 -0.094420 1.625712
v -0.167822 -0.094420 1.619757
v -0.167833 0.094420 1.619756
v 1.239154 0.588575 -0.699952
v 1.239154 -0.588575 -0.699952
v -0.677581 0.588575 -0.699952
v -0.677567 -0.588575 -0.699952
v 1.006469 0.362995 -0.699952
v 1.006469 -0.362995 -0.699952
v -0.444894 0.362995 -0.699952
v -0.444885 -0.362995 -0.699952
v 0.729374 0.094361 -1.388815
v 0.729374 -0.094361 -1.388815
v -0.167796 0.094361 -1.388815
v -0.167793 -0.094361 -1.388815
v -1.239154 -0.429021 -0.606762
v -1.069505 -0.588575 -0.699952
v -1.239154 -0.588575 -0.603891
v -1.081382 0.208617 -0.699952
v -1.008562 -0.588575 0.699952
v -1.239154 -0.429021 0.606762
v -1.239154 -0.588575 0.569383
v -1.327492 0.429021 0.606761
v -1.008782 0.267700 0.699952
v -1.342837 0.409195 -0.349714
v -1.342732 0.409404 0.314332
v -2.345248 0.218543 0.122987
v -2.345986 0.218403 -0.201075
v -1.607265 0.358878 -0.349695
v -1.607161 0.359088 0.314351
v -1.673672 0.686880 -0.349717
v -1.673567 0.687089 0.314329
v -1.637302 0.693801 -0.349719
v -1.364481 0.516102 -0.349721
v -1.364376 0.516311 0.314325
v -1.637197 0.694010 0.314327
v -2.362254 0.302544 0.122981
v -2.362992 0.302403 -0.201081
v -1.924039 0.639395 0.249389
v -2.293840 0.401215 0.145042
v -2.294675 0.401018 -0.218189
v -1.925264 0.639037 -0.299100
v -2.335293 -0.220438 0.484935
v -2.609394 -0.168279 0.296303
v -2.609394 0.168279 0.296303
v -2.336015 0.223885 0.486948
v -2.609394 -0.168279 -0.297581
v -2.337508 -0.220016 -0.484688
v -2.338362 0.224066 -0.487053
v -2.609394 0.168279 -0.297581
vn -0.1170 -0.0047 0.9931
vn -0.0000 -0.0000 1.0000
vn -0.0000 1.0000 -0.0000
vn -0.0000 -0.0000 -1.0000
vn -0.1851 0.1911 0.9640
vn -0.1869 0.9824 -0.0000
vn -0.1869 -0.9824 -0.0000
vn -0.2384 0.9712 -0.0000
vn 1.0000 -0.0000 -0.0000
vn 0.4927 -0.0000 -0.8702
vn 0.6961 -0.7180 -0.0000
vn 0.6961 0.7180 -0.0000
vn 0.4927 -0.0000 0.8702
vn -0.0000 -1.0000 -0.0000
vn 0.9745 -0.0000 0.2246
vn -0.0014 -0.9763 0.2164
vn -0.0000 0.9759 0.2181
vn -0.9745 -0.0001 0.2246
vn 0.9927 0.0038 0.1205
vn -0.0000 -0.9931 0.1176
vn -0.0000 0.9932 0.1165
vn -0.9928 -0.0001 0.1201
vn 0.9278 -0.0000 -0.3732
vn -0.0000 0.9317 -0.3633
vn -0.0000 -0.9317 -0.3633
vn -0.9278 -0.0000 -0.3732
vn 0.9894 -0.0000 -0.1452
vn -0.0000 0.9900 -0.1408
vn -0.0000 -0.9900 -0.1408
vn -0.9894 -0.0000 -0.1452
vn -0.4927 -0.0157 -0.8701
vn -0.4828 -0.1997 0.8526
vn -0.3748 -0.0001 0.9271
vn -1.0000 -0.0000 -0.0000
vn -0.2456 0.9694 0.0031
vn -0.9801 -0.1984 0.0023
vn -0.0001 -0.0001 -1.0000
vn -0.1900 -0.0385 -0.9810
vn 0.1869 -0.9824 0.0003
vn 0.9801 0.1984 -0.0002
vn 0.0001 0.0001 1.0000
vn 0.5458 0.8379 -0.0004
vn -0.1869 0.9824 -0.0003
vn -0.1870 0.9824 -0.0003
vn -0.8220 0.5696 0.0016
vn -0.5416 0.8406 0.0007
vn -0.2419 -0.0489 0.9691
vn -0.5669 -0.0000 0.8238
vn -0.5722 -0.0055 -0.8201
vn -0.1130 -0.0136 -0.9935
vn -0.1126 -0.0116 0.9936
vn -0.2016 0.9795 -0.0000
vn -0.1993 0.9799 -0.0000
vn -0.1934 0.9799 -0.0493
vn -0.1846 0.9828 -0.0097
vn -0.1822 0.9800 0.0798
vn -0.1869 0.9824 -0.0002
vn -0.1714 0.9852 -0.0101
vn -0.2329 0.9725 0.0029
vn 0.9751 0.0070 0.2217
vn -0.0000 -0.9759 0.2181
vn 0.9926 -0.0000 0.1213
vn -0.0008 -0.9932 0.1166
vn -0.2946 -0.0303 0.9551
vn -0.2564 0.9666 -0.0003
vn -0.8219 0.5697 0.0016
vn -0.5415 0.8407 0.0008
vn -0.5714 -0.0046 0.8207
vn -0.5669 -0.0000 -0.8238
vn -0.1182 -0.0055 -0.9930
vt 0.453184 0.038399
vt 0.591114 0.016642
vt 0.547548 0.038039
vt 0.586516 0.731099
vt 0.413484 0.731099
vt 0.413484 0.731099
vt 0.591114 0.233358
vt 0.544306 0.267113
vt 0.375000 0.306650
vt 0.375000 0.267113
vt 0.625000 0.000000
vt 0.556853 0.000000
vt 0.504918 0.808833
vt 0.495083 0.884514
vt 0.495083 0.808833
vt 0.818351 0.500000
vt 0.625000 0.750000
vt 0.625000 0.500000
vt 0.535739 0.178143
vt 0.546414 0.103037
vt 0.546384 0.160909
vt 0.464261 0.072085
vt 0.453273 0.211557
vt 0.408886 0.016642
vt 0.625000 0.250000
vt 0.375000 0.943344
vt 0.556853 0.976739
vt 0.375000 0.976739
vt 0.413484 0.518901
vt 0.586516 0.518901
vt 0.375000 0.500000
vt 0.375000 0.750000
vt 0.546597 0.538506
vt 0.453403 0.711494
vt 0.453403 0.538506
vt 0.586516 0.731099
vt 0.413484 0.518901
vt 0.546597 0.711494
vt 0.181650 0.500000
vt 0.181656 0.750000
vt 0.125000 0.726682
vt 0.496148 0.366005
vt 0.503852 0.440645
vt 0.496147 0.440645
vt 0.436300 0.780033
vt 0.563700 0.780033
vt 0.563700 0.913316
vt 0.625000 0.943351
vt 0.436300 0.913312
vt 0.520053 0.801418
vt 0.479947 0.891929
vt 0.479947 0.801418
vt 0.520053 0.891930
vt 0.504918 0.884514
vt 0.577092 0.476528
vt 0.422908 0.476528
vt 0.577092 0.330121
vt 0.422908 0.330122
vt 0.625000 0.306649
vt 0.520040 0.448576
vt 0.479960 0.448576
vt 0.520040 0.358074
vt 0.479960 0.358074
vt 0.503852 0.366005
vt 0.125000 0.516642
vt 0.142113 0.500000
vt 0.125000 0.517155
vt 0.148261 0.750000
vt 0.125000 0.733358
vt 0.509376 0.000000
vt 0.375000 0.000000
vt 0.408886 0.233358
vt 0.375000 0.023318
vt 0.576262 0.068862
vt 0.576218 0.187450
vt 0.549817 0.163963
vt 0.566133 0.080459
vt 0.549817 0.163963
vt 0.549856 0.099096
vt 0.566057 0.178411
vt 0.566133 0.080459
vt 0.535739 0.072085
vt 0.464261 0.072085
vt 0.464261 0.178143
vt 0.535739 0.178143
vt 0.547587 0.211980
vt 0.818351 0.750000
vt 0.535739 0.072085
vt 0.547548 0.038039
vt 0.453184 0.038399
vt 0.464261 0.178143
vt 0.375000 0.232845
vt 0.549856 0.099096
s 0
f 82/1/1 3/2/1 85/3/1
f 19/4/2 15/5/2 18/6/2
f 4/7/3 6/2/3 7/7/3
f 58/8/4 46/9/4 56/10/4
f 34/11/5 62/2/5 63/12/5
f 12/13/2 29/14/2 11/15/2
f 45/16/3 31/17/3 43/18/3
f 89/19/6 66/20/6 67/21/6
f 83/22/7 87/23/7 2/24/7
f 45/25/8 6/2/8 34/11/8
f 33/26/2 63/27/2 59/28/2
f 14/29/9 43/18/9 13/30/9
f 15/5/9 44/31/9 14/29/9
f 13/30/9 31/17/9 16/4/9
f 16/4/9 32/32/9 15/5/9
f 24/33/9 17/34/9 21/35/9
f 22/29/4 13/30/4 23/30/4
f 23/30/3 16/4/3 19/36/3
f 26/35/10 23/30/10 25/33/10
f 22/37/11 27/34/11 18/5/11
f 19/36/12 25/33/12 23/30/12
f 18/6/13 28/38/13 19/4/13
f 18/5/14 14/29/14 22/37/14
f 21/35/2 25/33/2 24/33/2
f 17/34/3 26/35/3 21/35/3
f 24/33/14 28/38/14 20/38/14
f 20/38/4 27/34/4 17/34/4
f 46/39/14 33/40/14 61/41/14
f 30/42/4 9/43/4 10/44/4
f 36/45/2 31/17/2 35/46/2
f 36/45/2 33/26/2 32/32/2
f 38/47/2 31/17/2 34/48/2
f 38/47/2 33/26/2 37/49/2
f 39/50/15 36/45/15 35/46/15
f 41/51/16 36/45/16 40/52/16
f 42/53/17 35/46/17 38/47/17
f 42/53/18 37/49/18 41/51/18
f 12/13/19 40/52/19 39/50/19
f 29/14/20 40/52/20 11/15/20
f 5/54/21 39/50/21 42/53/21
f 5/54/22 41/51/22 29/14/22
f 47/55/4 44/31/4 48/56/4
f 49/57/4 43/18/4 47/55/4
f 48/56/4 46/9/4 50/58/4
f 49/57/4 46/9/4 45/59/4
f 51/60/23 48/56/23 52/61/23
f 53/62/24 47/55/24 51/60/24
f 52/61/25 50/58/25 54/63/25
f 53/62/26 50/58/26 49/57/26
f 9/43/27 52/61/27 10/44/27
f 8/64/28 51/60/28 9/43/28
f 10/44/29 54/63/29 30/42/29
f 30/42/30 53/62/30 8/64/30
f 55/65/31 56/66/31 57/67/31
f 3/2/3 2/24/3 62/2/3
f 59/68/32 60/69/32 61/41/32
f 63/70/33 60/24/33 59/71/33
f 1/72/34 61/73/34 60/24/34
f 4/7/35 69/74/35 3/2/35
f 76/20/36 67/21/36 66/20/36
f 73/75/37 68/75/37 70/75/37
f 80/76/38 70/75/38 67/21/38
f 65/74/39 68/75/39 64/75/39
f 73/75/40 65/74/40 64/75/40
f 74/74/41 71/74/41 69/74/41
f 72/75/42 74/74/42 73/75/42
f 72/75/43 71/74/43 75/74/43
f 70/75/44 78/77/44 71/74/44
f 80/78/45 76/20/45 79/79/45
f 81/80/46 79/79/46 78/77/46
f 78/81/47 76/20/47 69/74/47
f 82/1/48 84/82/48 83/83/48
f 84/82/34 86/84/34 83/83/34
f 87/23/49 89/85/49 88/86/49
f 87/23/50 4/7/50 1/72/50
f 82/1/51 2/24/51 3/2/51
f 19/4/2 16/4/2 15/5/2
f 4/7/3 3/2/3 6/2/3
f 58/8/4 45/59/4 46/9/4
f 34/11/3 6/2/3 62/2/3
f 12/13/2 5/54/2 29/14/2
f 45/16/3 34/87/3 31/17/3
f 4/7/52 88/86/52 89/19/52
f 89/19/53 84/88/53 85/89/53
f 85/89/54 3/2/54 69/74/54
f 85/89/55 69/74/55 66/20/55
f 68/75/56 4/7/56 89/19/56
f 67/21/57 68/75/57 89/19/57
f 89/19/58 85/89/58 66/20/58
f 2/24/7 82/90/7 83/22/7
f 83/22/7 86/91/7 87/23/7
f 87/23/7 1/72/7 2/24/7
f 45/25/59 7/7/59 6/2/59
f 33/26/2 34/48/2 63/27/2
f 14/29/9 44/31/9 43/18/9
f 15/5/9 32/32/9 44/31/9
f 13/30/9 43/18/9 31/17/9
f 16/4/9 31/17/9 32/32/9
f 24/33/9 20/38/9 17/34/9
f 22/29/4 14/29/4 13/30/4
f 23/30/3 13/30/3 16/4/3
f 26/35/10 22/29/10 23/30/10
f 22/37/11 26/35/11 27/34/11
f 19/36/12 28/38/12 25/33/12
f 18/6/13 27/34/13 28/38/13
f 18/5/14 15/5/14 14/29/14
f 21/35/2 26/35/2 25/33/2
f 17/34/3 27/34/3 26/35/3
f 24/33/14 25/33/14 28/38/14
f 20/38/4 28/38/4 27/34/4
f 61/41/14 57/67/14 56/66/14
f 46/39/14 44/31/14 32/32/14
f 61/41/14 56/66/14 46/39/14
f 33/40/14 59/68/14 61/41/14
f 46/39/14 32/32/14 33/40/14
f 30/42/4 8/64/4 9/43/4
f 36/45/2 32/32/2 31/17/2
f 36/45/2 37/49/2 33/26/2
f 38/47/2 35/46/2 31/17/2
f 38/47/2 34/48/2 33/26/2
f 39/50/60 40/52/60 36/45/60
f 41/51/61 37/49/61 36/45/61
f 42/53/17 39/50/17 35/46/17
f 42/53/18 38/47/18 37/49/18
f 12/13/62 11/15/62 40/52/62
f 29/14/63 41/51/63 40/52/63
f 5/54/21 12/13/21 39/50/21
f 5/54/22 42/53/22 41/51/22
f 47/55/4 43/18/4 44/31/4
f 49/57/4 45/59/4 43/18/4
f 48/56/4 44/31/4 46/9/4
f 49/57/4 50/58/4 46/9/4
f 51/60/23 47/55/23 48/56/23
f 53/62/24 49/57/24 47/55/24
f 52/61/25 48/56/25 50/58/25
f 53/62/26 54/63/26 50/58/26
f 9/43/27 51/60/27 52/61/27
f 8/64/28 53/62/28 51/60/28
f 10/44/29 52/61/29 54/63/29
f 30/42/30 54/63/30 53/62/30
f 62/2/3 6/2/3 3/2/3
f 2/24/3 60/24/3 62/2/3
f 63/70/64 62/2/64 60/24/64
f 1/72/3 55/72/3 57/92/3
f 1/72/34 57/92/34 61/73/34
f 60/24/3 2/24/3 1/72/3
f 4/7/65 68/75/65 69/74/65
f 76/20/36 77/21/36 67/21/36
f 70/75/37 72/75/37 73/75/37
f 73/75/37 64/75/37 68/75/37
f 67/21/38 77/21/38 80/76/38
f 80/76/38 81/80/38 70/75/38
f 70/75/38 68/75/38 67/21/38
f 65/74/39 69/74/39 68/75/39
f 73/75/40 74/74/40 65/74/40
f 69/74/41 65/74/41 74/74/41
f 74/74/41 75/74/41 71/74/41
f 72/75/42 75/74/42 74/74/42
f 72/75/43 70/75/43 71/74/43
f 70/75/57 81/80/57 78/77/57
f 80/78/66 77/21/66 76/20/66
f 81/80/67 80/78/67 79/79/67
f 69/74/47 71/74/47 78/81/47
f 78/81/47 79/93/47 76/20/47
f 76/20/47 66/20/47 69/74/47
f 82/1/68 85/3/68 84/82/68
f 84/82/34 89/85/34 86/84/34
f 87/23/69 86/84/69 89/85/69
f 87/23/70 88/86/70 4/7/70
