# Blender 4.2.2 LTS
# www.blender.org
mtllib nave.mtl
o Cube
v -0.070251 -0.146652 0.138730
v -0.070251 -0.145097 -0.138806
v -0.095983 0.126780 -0.138730
v -0.100386 0.127220 0.138730
v -0.095983 0.126780 -0.138730
v -0.100386 0.127220 0.138730
v 0.270721 -0.008404 0.438282
v 0.468316 0.000000 0.436773
v 0.652868 -0.116323 0.136033
v 0.681879 -0.069467 -0.116282
v 0.652864 -0.116014 -0.144055
v 0.652411 0.116075 -0.144210
v 0.690072 -0.065275 0.113219
v 0.653492 0.116176 0.136109
v 0.678349 0.066856 0.112900
v 0.693158 0.066809 -0.116164
v 0.651668 0.167024 -0.169763
v 0.651668 -0.167024 -0.169534
v 0.093333 0.167024 -0.169762
v 0.564941 0.085115 -0.177639
v 0.564941 -0.085115 -0.177317
v 0.180075 -0.097432 -0.177264
v 0.180064 0.085115 -0.177639
v 0.478245 0.000667 -0.494420
v 0.266783 0.000786 -0.494181
v 0.651668 0.167024 0.160037
v 0.651668 -0.167024 0.160037
v 0.583888 0.103009 0.160037
v 0.583888 -0.103009 0.160037
v 0.161113 0.103009 0.160037
v 0.161116 -0.114151 0.160037
v 0.241831 -0.026777 0.317539
v -0.070251 -0.146652 0.138730
v -0.018115 -0.163065 0.159926
v -0.003607 0.150660 0.158011
v -0.004927 -0.161321 -0.165894
v -0.070251 -0.145097 -0.138806
v -0.095983 0.126780 -0.138730
v -0.401452 0.091598 -0.026739
v -0.102831 0.126196 0.083625
v -0.203358 0.193054 -0.071351
v -0.206633 0.195113 0.079346
v -0.103008 0.128031 -0.076378
v -0.400575 0.090897 0.045067
v -0.434667 -0.042359 -0.099045
v -0.451850 0.067170 -0.090087
v -0.447603 -0.039034 0.095557
v -0.441155 0.071064 0.093688
vn -0.0000 1.0000 -0.0000
vn -0.1697 0.0392 -0.9847
vn 0.9646 -0.0005 -0.2638
vn -0.9645 -0.0006 -0.2641
vn -0.9294 -0.2601 0.2619
vn -0.1113 -0.0103 -0.9937
vn 0.0431 -0.9892 0.1402
vn -0.0294 -0.9987 0.0418
vn -0.0251 0.9988 0.0424
vn -0.2741 -0.9617 -0.0018
vn -0.4332 0.9013 0.0061
vn -0.2344 0.9721 -0.0053
vn 0.9971 -0.0000 0.0760
vn 0.9997 -0.0235 -0.0000
vn 0.9993 0.0377 -0.0039
vn 0.9996 -0.0000 -0.0291
vn 0.9960 -0.0824 -0.0340
vn 0.6803 -0.0021 0.7330
vn 0.8042 -0.5941 -0.0179
vn 0.7715 0.6362 -0.0032
vn 0.5305 -0.0432 -0.8466
vn 0.0887 -0.0007 -0.9961
vn -0.0068 -0.1560 -0.9877
vn -0.0000 0.0957 -0.9954
vn -0.0792 0.0120 -0.9968
vn 0.0306 -0.9571 -0.2882
vn 0.0003 0.9662 -0.2577
vn -0.0000 -0.0000 1.0000
vn -0.0038 0.0293 0.9996
vn -0.0023 0.0062 1.0000
vn -0.0000 0.9372 0.3488
vn 0.9228 -0.0000 0.3854
vn -0.0601 -0.9434 0.3261
vn -0.8899 -0.0000 0.4561
vn 0.2670 0.9636 0.0108
vn -0.3906 -0.0367 -0.9198
vn 0.5441 0.8390 0.0090
vn -0.1146 -0.1114 0.9871
vn -0.4753 0.8797 0.0144
vn -0.9966 0.0593 0.0567
vn -0.1447 -0.1477 -0.9784
vn -0.1350 0.0247 0.9905
vn -0.1905 -0.0210 0.9815
vn -0.1447 0.0581 -0.9878
vn -0.0087 -1.0000 -0.0000
vn -0.2432 -0.9700 -0.0054
vn -0.0046 -0.7961 -0.6051
vn -0.2719 -0.9623 -0.0054
vn -0.1160 0.9932 -0.0133
vn -0.1703 0.9846 -0.0389
vn -0.1574 0.9570 -0.2438
vn -0.1880 0.9543 0.2324
vn -0.4506 0.8926 0.0142
vn -0.2100 0.9776 -0.0133
vn 0.9990 -0.0027 0.0443
vn 0.9997 -0.0237 -0.0000
vn 0.9999 0.0146 -0.0000
vn 0.9987 0.0019 -0.0507
vn 0.9940 0.0883 0.0642
vn 0.4772 0.0445 0.8777
vn 0.8488 -0.5287 -0.0006
vn 0.9022 0.4273 0.0582
vn 0.6908 0.0009 -0.7231
vn 0.0922 -0.0019 -0.9957
vn 0.0028 -0.0917 -0.9958
vn -0.0606 -0.0021 -0.9982
vn -0.0008 -0.9654 -0.2609
vn -0.0000 0.9663 -0.2574
vn -0.0002 -0.0016 1.0000
vn -0.0123 -0.0000 0.9999
vn -0.0363 0.9227 0.3838
vn 0.0232 -0.8792 0.4759
vn -0.2716 0.9624 -0.0058
vn 0.5531 0.8331 0.0006
vn -0.4597 0.8878 -0.0221
vn -0.9867 -0.1496 -0.0630
vn -0.1173 -0.0129 0.9930
vn -0.3704 0.0228 0.9286
vt 0.591114 0.233358
vt 0.591114 0.016642
vt 0.625000 0.000000
vt 0.556853 0.000000
vt 0.499950 0.808831
vt 0.436300 0.780033
vt 0.563700 0.780033
vt 0.500041 0.884823
vt 0.563700 0.913316
vt 0.436300 0.913312
vt 0.479960 0.358074
vt 0.577092 0.330121
vt 0.501465 0.365925
vt 0.457573 0.051745
vt 0.408886 0.016642
vt 0.498917 0.441045
vt 0.379709 0.969982
vt 0.125000 0.516642
vt 0.375000 0.500000
vt 0.818351 0.750000
vt 0.625000 0.500000
vt 0.818351 0.500000
vt 0.408886 0.233358
vt 0.458873 0.194528
vt 0.546632 0.161130
vt 0.541641 0.195001
vt 0.540397 0.058657
vt 0.625000 0.250000
vt 0.586516 0.518901
vt 0.413484 0.731099
vt 0.375000 0.750000
vt 0.586516 0.731099
vt 0.625000 0.750000
vt 0.453403 0.538506
vt 0.546597 0.711494
vt 0.453403 0.711494
vt 0.546597 0.538506
vt 0.413484 0.518901
vt 0.625000 0.943351
vt 0.422908 0.476528
vt 0.589073 0.289047
vt 0.422908 0.330122
vt 0.147658 0.495397
vt 0.577092 0.476528
vt 0.576218 0.187450
vt 0.576262 0.068862
vt 0.378480 0.000000
vt 0.574734 0.070612
vt 0.574125 0.185588
vt 0.546677 0.102735
vt 0.574734 0.070612
s 0
f 4/1/1 6/1/1 5/2/1
f 19/3/2 36/4/2 38/2/2
f 24/5/3 20/7/3 21/6/3
f 25/8/4 22/10/4 23/9/4
f 32/11/5 7/13/5 30/12/5
f 3/2/6 2/15/6 45/14/6
f 8/16/7 7/13/7 32/11/7
f 36/17/8 27/19/8 33/18/8
f 19/20/9 35/22/9 26/21/9
f 4/1/1 5/2/1 3/2/1
f 19/3/1 38/2/1 5/2/1
f 1/23/10 47/24/10 45/14/10
f 44/25/11 46/27/11 48/26/11
f 5/2/12 6/1/12 35/28/12
f 14/29/13 26/21/13 27/19/13
f 27/19/14 18/31/14 11/30/14
f 26/21/15 14/29/15 12/32/15
f 18/31/16 17/33/16 12/32/16
f 13/34/17 10/36/17 16/35/17
f 15/37/18 14/29/18 9/38/18
f 10/36/19 13/34/19 9/38/19
f 16/35/20 12/32/20 14/29/20
f 12/32/21 16/35/21 10/36/21
f 17/33/22 18/31/22 21/6/22
f 18/31/23 36/17/23 22/10/23
f 17/33/24 20/7/24 23/9/24
f 36/17/25 19/39/25 23/9/25
f 21/6/26 22/10/26 25/8/26
f 20/7/27 24/5/27 25/8/27
f 29/40/28 27/19/28 26/21/28
f 26/21/29 35/41/29 30/12/29
f 27/19/28 29/40/28 31/42/28
f 35/41/30 34/43/30 31/42/30
f 8/16/31 28/44/31 30/12/31
f 8/16/32 29/40/32 28/44/32
f 29/40/33 8/16/33 32/11/33
f 32/11/34 30/12/34 31/42/34
f 3/2/1 38/2/1 2/15/1
f 3/2/35 43/46/35 40/45/35
f 36/47/36 37/15/36 38/2/36
f 40/45/37 43/46/37 41/48/37
f 44/25/38 40/45/38 42/49/38
f 39/50/39 44/25/39 42/49/39
f 47/24/40 48/26/40 46/27/40
f 41/51/41 43/46/41 39/50/41
f 4/1/42 48/26/42 47/24/42
f 35/41/43 6/1/43 33/18/43
f 3/2/44 45/14/44 46/27/44
f 27/19/45 36/17/45 18/31/45
f 36/17/46 33/18/46 37/15/46
f 33/18/47 27/19/47 34/43/47
f 19/20/1 26/21/1 17/33/1
f 1/23/48 45/14/48 2/15/48
f 44/25/49 4/1/49 40/45/49
f 46/27/50 43/46/50 3/2/50
f 46/27/51 39/50/51 43/46/51
f 44/25/52 48/26/52 4/1/52
f 46/27/53 44/25/53 39/50/53
f 5/2/54 35/28/54 19/3/54
f 14/29/55 27/19/55 9/38/55
f 27/19/56 11/30/56 9/38/56
f 26/21/57 12/32/57 17/33/57
f 18/31/58 12/32/58 11/30/58
f 13/34/59 16/35/59 15/37/59
f 15/37/60 9/38/60 13/34/60
f 10/36/61 9/38/61 11/30/61
f 16/35/62 14/29/62 15/37/62
f 12/32/63 10/36/63 11/30/63
f 17/33/64 21/6/64 20/7/64
f 18/31/65 22/10/65 21/6/65
f 17/33/24 23/9/24 19/39/24
f 36/17/66 23/9/66 22/10/66
f 21/6/67 25/8/67 24/5/67
f 20/7/68 25/8/68 23/9/68
f 29/40/28 26/21/28 28/44/28
f 26/21/28 30/12/28 28/44/28
f 27/19/69 31/42/69 34/43/69
f 35/41/70 31/42/70 30/12/70
f 8/16/71 30/12/71 7/13/71
f 29/40/72 32/11/72 31/42/72
f 38/2/1 3/2/1 5/2/1
f 2/15/1 38/2/1 37/15/1
f 3/2/73 40/45/73 4/1/73
f 40/45/74 41/48/74 42/49/74
f 39/50/75 42/49/75 41/51/75
f 47/24/76 46/27/76 45/14/76
f 4/1/77 47/24/77 1/23/77
f 35/41/78 33/18/78 34/43/78
l 1 33
